<svg width="26" height="26" xmlns="http://www.w3.org/2000/svg"><defs><clipPath id="a"><path d="M1440 0v3098H0V0h1440z"/></clipPath><clipPath id="b"><path d="M1440 0v818H0V0h1440z"/></clipPath><clipPath id="c"><path d="M15.893.326l1.945 2.629 3.267-.119.612 3.212 2.996 1.312-.843 3.159L26 13l-2.13 2.481.843 3.16-2.996 1.31-.612 3.213-3.267-.119-1.945 2.63L13 24.148l-2.893 1.525-1.945-2.629-3.267.119-.612-3.212-2.996-1.312.843-3.159L0 13l2.13-2.481-.843-3.16 2.996-1.31.612-3.213 3.267.119 1.945-2.63L13 1.852 15.893.326z"/></clipPath><clipPath id="d"><path d="M13.906.285l1.702 2.3 2.86-.103.534 2.81 2.622 1.148-.738 2.764 1.864 2.171-1.864 2.17.738 2.765-2.622 1.148-.535 2.81-2.86-.103-1.7 2.3-2.532-1.334-2.531 1.334-1.702-2.3-2.86.103-.534-2.81-2.622-1.148.738-2.764L0 11.375l1.864-2.17-.738-2.765 2.622-1.148.535-2.81 2.86.103 1.7-2.3 2.532 1.334L13.906.285z"/></clipPath><clipPath id="e"><path d="M4.19 7.001c.526 0 .953.15 1.281.447.33.298.493.687.493 1.166 0 .145-.009.302-.028.471H3.43l.014.127c.028.16.099.286.212.38.14.118.33.176.57.176.333 0 .545-.1.634-.302h1.056l-.03.139c-.076.27-.248.492-.516.667-.312.204-.693.306-1.144.306-.582 0-1.039-.157-1.37-.472-.33-.314-.496-.753-.496-1.316 0-.554.166-.99.496-1.31C3.186 7.16 3.631 7 4.19 7zm3.69 0c.479 0 .85.09 1.116.271.265.18.398.44.398.778H8.33l-.005-.077c-.031-.192-.184-.289-.46-.289a.466.466 0 0 0-.281.078.235.235 0 0 0-.106.197c0 .15.125.258.374.324l.718.197.137.041c.481.165.722.477.722.938 0 .347-.134.62-.402.82-.267.2-.629.3-1.084.3-.483 0-.872-.103-1.165-.307-.294-.204-.44-.473-.44-.806h1.07l.006.067a.34.34 0 0 0 .149.218c.103.073.237.109.401.109a.467.467 0 0 0 .285-.081.268.268 0 0 0 .11-.229.255.255 0 0 0-.078-.194c-.052-.049-.148-.09-.289-.123l-.71-.176-.137-.039c-.477-.158-.716-.476-.716-.954 0-.319.133-.576.398-.77C7.092 7.097 7.443 7 7.88 7zm3.513 0c.48 0 .851.09 1.117.271.265.18.397.44.397.778h-1.063l-.006-.077c-.03-.192-.183-.289-.459-.289a.466.466 0 0 0-.281.078.235.235 0 0 0-.106.197c0 .15.125.258.373.324l.719.197.137.041c.481.165.722.477.722.938 0 .347-.134.62-.402.82-.267.2-.629.3-1.084.3-.484 0-.872-.103-1.166-.307-.293-.204-.44-.473-.44-.806h1.07l.007.067a.34.34 0 0 0 .149.218c.103.073.237.109.401.109a.467.467 0 0 0 .285-.081.268.268 0 0 0 .11-.229.255.255 0 0 0-.078-.194c-.052-.049-.148-.09-.289-.123l-.711-.176-.136-.039c-.477-.158-.716-.476-.716-.954 0-.319.133-.576.398-.77.265-.196.616-.293 1.052-.293zM1.74 5.557v4.93H.662v-4.93h1.077zm2.444 2.17c-.23 0-.412.062-.546.186a.676.676 0 0 0-.208.503h1.472c-.01-.46-.249-.69-.718-.69zM2.669 0c.652 0 1.193.157 1.623.472.43.314.665.713.708 1.197H3.753l-.036-.122a.843.843 0 0 0-.32-.392c-.19-.132-.43-.197-.721-.197-.484 0-.853.152-1.11.457-.255.306-.38.702-.376 1.19-.005.47.126.856.39 1.159.266.303.617.454 1.054.454.69 0 1.12-.293 1.288-.88h-.88v-.86h2.521v.86h-.465l-.048.193c-.142.504-.404.9-.786 1.19-.43.327-.983.49-1.659.49-.779 0-1.409-.243-1.89-.729C.234 3.996-.005 3.378 0 2.627 0 1.88.238 1.256.715.753 1.19.251 1.843 0 2.669 0zm4.81 1.584c.239 0 .452.052.64.155.188.104.329.244.423.423v-.486h1.07V5.07h-1.07v-.479l-.063.098c-.091.125-.215.23-.37.314a1.33 1.33 0 0 1-.645.159c-.493 0-.882-.167-1.169-.5-.286-.334-.43-.763-.43-1.289 0-.516.149-.944.444-1.282.296-.338.686-.507 1.17-.507zm4.323 0c.479 0 .85.09 1.116.271.265.181.398.44.398.779h-1.063l-.006-.077c-.03-.193-.184-.29-.46-.29a.466.466 0 0 0-.28.078.235.235 0 0 0-.106.197c0 .15.124.258.373.324l.718.197.137.041c.481.165.722.477.722.938 0 .347-.134.62-.401.82-.268.2-.63.3-1.085.3-.483 0-.872-.103-1.165-.307-.294-.204-.44-.473-.44-.806h1.07l.006.068a.34.34 0 0 0 .149.217c.103.073.237.11.401.11a.467.467 0 0 0 .286-.082.268.268 0 0 0 .109-.229.255.255 0 0 0-.078-.193c-.051-.05-.148-.09-.288-.123l-.712-.176-.136-.04c-.477-.158-.716-.476-.716-.953 0-.32.133-.577.398-.771.265-.195.616-.293 1.053-.293zm-4.028.902a.753.753 0 0 0-.588.246c-.148.164-.222.378-.222.641s.074.478.222.644c.148.167.344.25.588.25.258 0 .458-.084.599-.253a.967.967 0 0 0 .21-.641.956.956 0 0 0-.21-.634c-.141-.169-.34-.253-.599-.253z"/></clipPath></defs><g clip-path="url(#a)" transform="translate(-610 -640)"><g clip-path="url(#b)" transform="translate(0 84)"><g clip-path="url(#c)" transform="translate(610 556)"><path fill="#FFB500" d="M0 0.325937142L26 0.325937142 26 25.6740629 0 25.6740629 0 0.325937142z"/></g><g clip-path="url(#d)" transform="translate(611.625 557.625)"><path fill="#FFE03B" d="M0 0.285194999L22.75 0.285194999 22.75 22.464805 0 22.464805 0 0.285194999z"/></g><g clip-path="url(#e)" transform="translate(616.307 563.388)"><path fill="#F35800" d="M4.44116315e-16 0L13.351068 0 13.351068 10.5782083 4.44116315e-16 10.5782083 4.44116315e-16 0z"/></g></g></g></svg>